<?xml version="1.0" encoding="UTF-8"?>
<svg id="Layer_2" data-name="Layer 2" xmlns="http://www.w3.org/2000/svg" viewBox="0 0 97.66 26.85">
  <defs>
    <style>
      .cls-1 {
        fill: none;
      }

      .cls-2 {
        fill: #f89e1b;
      }

      .cls-3 {
        fill: #f37a20;
      }

      .cls-4 {
        fill: #383636;
      }
    </style>
  </defs>
  <g id="Layer_1-2" data-name="Layer 1">
    <g>
      <path class="cls-3" d="m37.59,5.9c-4.11,0-7.44,3.32-7.47,7.42h0v13.53h2.74v-7.7c1.29,1.05,2.93,1.69,4.73,1.69,4.13,0,7.47-3.34,7.47-7.47s-3.34-7.47-7.47-7.47Zm0,12.15c-2.58,0-4.68-2.1-4.68-4.68s2.1-4.68,4.68-4.68,4.68,2.1,4.68,4.68-2.1,4.68-4.68,4.68Z"/>
      <path class="cls-3" d="m21.41,8.69c2.58,0,4.68,2.1,4.68,4.68s-2.1,4.68-4.68,4.68-4.68-2.1-4.68-4.68,2.1-4.68,4.68-4.68m0-2.79c-4.13,0-7.47,3.34-7.47,7.47s3.34,7.47,7.47,7.47,7.47-3.34,7.47-7.47-3.34-7.47-7.47-7.47h0Z"/>
      <path class="cls-4" d="m55.91,5.82h0c-1.05,0-2.02.4-2.74,1.05-.73-.65-1.69-1.05-2.74-1.05h0c-2.27,0-4.12,1.84-4.12,4.12v10.91h2.74v-10.98c0-.76.61-1.37,1.37-1.37h0c.76,0,1.37.61,1.37,1.37v.07s0,0,0,0v10.91h2.74v-10.91s0,0,0,0v-.07c0-.76.61-1.37,1.37-1.37h0c.76,0,1.37.61,1.37,1.37v10.98h2.74v-10.91c0-2.27-1.84-4.12-4.12-4.12Z"/>
      <path class="cls-4" d="m85.41,10.25v-1.74c0-1.49-1.21-2.7-2.7-2.7h-5.58c-1.49,0-2.7,1.21-2.7,2.7v3.49c0,1.49,1.21,2.7,2.7,2.7h4.6c.52,0,.93.42.93.93v1.53c0,.52-.42.93-.93.93h-3.62c-.52,0-.93-.42-.93-.93v-.76h-2.74v1.79c0,1.47,1.19,2.66,2.66,2.66h5.67c1.47,0,2.66-1.19,2.66-2.66v-3.57c0-1.47-1.19-2.66-2.66-2.66h-4.64c-.52,0-.93-.42-.93-.93v-1.53c0-.52.42-.93.93-.93h3.62c.52,0,.93.42.93.93v.76h2.74Z"/>
      <path class="cls-4" d="m97.66,10.26v-1.74c0-1.49-1.21-2.7-2.7-2.7h-5.58c-1.49,0-2.7,1.21-2.7,2.7v3.49c0,1.49,1.21,2.7,2.7,2.7h4.6c.52,0,.93.42.93.93v1.53c0,.52-.42.93-.93.93h-3.62c-.52,0-.93-.42-.93-.93v-.76h-2.74v1.79c0,1.47,1.19,2.66,2.66,2.66h5.67c1.47,0,2.66-1.19,2.66-2.66v-3.57c0-1.47-1.19-2.66-2.66-2.66h-4.64c-.52,0-.93-.42-.93-.93v-1.53c0-.52.42-.93.93-.93h3.62c.52,0,.93.42.93.93v.76h2.74Z"/>
      <path class="cls-4" d="m73.12,18.1c-.45,0-.81-.36-.81-.81V6.08c0-.15-.12-.26-.26-.26h-2.22c-.15,0-.26.12-.26.26v.47c-.81-.47-1.74-.74-2.74-.74h0c-3.03,0-5.49,2.46-5.49,5.49v4.05c0,3.03,2.46,5.49,5.49,5.49h0c1.32,0,2.53-.47,3.48-1.25.48.6,1.16,1.02,1.94,1.18.02,0,.03,0,.05,0,.37.04.71.04,1.03.03v-2.73c-.06.01-.13.02-.19.02Zm-6.3,0h0c-1.52,0-2.74-1.23-2.74-2.74v-4.05c0-1.52,1.23-2.74,2.74-2.74h0c1.52,0,2.74,1.23,2.74,2.74v4.05c0,1.52-1.23,2.74-2.74,2.74Z"/>
      <polygon class="cls-3" points="8.19 1.54 7.05 3.09 8.65 5.26 11.07 5.26 12.68 3.09 11.86 1.97 11.54 1.54 8.19 1.54"/>
      <polygon class="cls-1" points="11.96 1.04 11.96 1.04 13.4 2.99 11.96 1.04"/>
      <polygon class="cls-3" points="13.4 2.99 19.73 2 17.73 0 11.94 1.01 11.96 1.04 11.96 1.04 13.4 2.99"/>
      <polygon class="cls-3" points="6.33 2.99 0 2 2 0 7.79 1.01 7.78 1.04 7.77 1.04 6.33 2.99"/>
      <polygon class="cls-4" points="2 0 17.73 0 11.96 1.04 7.79 1.01 2 0"/>
      <polygon class="cls-2" points="12.74 21.91 11.14 5.9 11.08 5.9 9.94 5.9 9.86 5.9 9.86 24.77 9.86 24.77 12.74 21.91"/>
      <polygon class="cls-3" points="9.78 5.9 8.73 5.9 8.59 5.9 6.98 21.91 9.86 24.77 9.86 5.9 9.78 5.9"/>
    </g>
  </g>
</svg>