<?xml version="1.0" encoding="UTF-8"?>
<svg id="Layer_2" data-name="Layer 2" xmlns="http://www.w3.org/2000/svg" viewBox="0 0 27.3 22.11">
  <defs>
    <style>
      .cls-1 {
        fill: #f37a20;
      }
    </style>
  </defs>
  <g id="Layer_2-2" data-name="Layer 2">
    <g>
      <path class="cls-1" d="m19.66,6.64c0-1.82-1.06-3.42-2.89-4.61-1.83-1.28-4.2-2.04-6.99-2.04S4.62.75,2.89,2.04C1.08,3.22,0,4.83,0,6.64s1.08,3.54,2.89,4.73c1.73,1.18,4.2,1.93,6.88,1.93.86,0,1.71-.1,2.48-.21l3.65,3c.33.21.43.33.65.33.21,0,.31-.22.21-.75l-.96-3.65c.31-.22.63-.43.96-.65,1.83-1.18,2.89-2.89,2.89-4.73Zm-12.89.98c-.21.21-.53.33-.86.33s-.65-.12-.96-.33c-.22-.22-.33-.53-.33-.98,0-.31.1-.63.33-.86.31-.21.63-.43.96-.43s.65.22.86.43c.33.22.45.55.45.86,0,.45-.12.75-.45.98Zm3.99,0c-.22.21-.55.33-.98.33-.33,0-.65-.12-.86-.33-.21-.22-.43-.53-.43-.98,0-.31.22-.63.43-.86.2-.21.53-.43.86-.43.43,0,.75.22.98.43.21.22.43.55.43.86,0,.45-.22.75-.43.98Zm3.87,0c-.22.21-.55.33-.87.33s-.63-.12-.96-.33c-.22-.22-.33-.53-.33-.98,0-.31.1-.63.33-.86.33-.21.65-.43.96-.43.33,0,.65.22.87.43.31.22.43.55.43.86,0,.45-.12.75-.43.98Z"/>
      <path class="cls-1" d="m13.75,18.36l-.75,3.1c-.21.43-.1.65.12.65.1,0,.33,0,.53-.22l3.12-2.57c.65.1,1.4.1,2.16.1,2.25,0,4.39-.63,5.92-1.61,1.49-1.06,2.47-2.47,2.47-4.08,0-1.51-.98-2.89-2.47-3.97-1.08-.75-2.38-1.18-3.77-1.51-.55,1.83-1.84,3.44-3.45,4.52h0l.22.63c0-.1.1-.31.21-.43.22-.21.55-.33.87-.33.21,0,.53.12.74.33.22.22.34.43.34.75s-.12.65-.34.86c-.21.22-.53.33-.74.33-.33,0-.55-.1-.75-.33l.1.65c.33.86.21,1.93-.75,2.57-.33.12-.65.22-.96.22-.65,0-1.18-.22-1.73-.65l-3.01-2.57c-.43.1-.86.1-1.18.1.33,1.08,1.18,2.14,2.26,2.89.33.22.55.33.86.55h0Z"/>
    </g>
  </g>
</svg>