<?xml version="1.0" encoding="UTF-8"?>
<svg id="Layer_2" data-name="Layer 2" xmlns="http://www.w3.org/2000/svg" viewBox="0 0 17.25 28.87">
  <defs>
    <style>
      .cls-1 {
        fill: #fff;
      }

      .cls-2 {
        fill: #44400f;
      }

      .cls-3 {
        fill: #f69c1b;
        stroke: #662000;
        stroke-miterlimit: 10;
        stroke-width: .11px;
      }
    </style>
  </defs>
  <g id="Layer_1-2" data-name="Layer 1">
    <g>
      <polygon class="cls-2" points="13.52 13.41 9.08 14.73 12.6 8.79 17.25 8.79 16.93 6.84 15.42 6.84 10.88 2.02 4.91 6.84 2.45 6.84 2.5 8.79 7.03 8.79 1.69 16.93 .11 17.4 .11 19.34 4.83 19.34 2.85 24.52 2.61 24.62 1.18 26.92 1.2 28.87 6.58 23.08 6.58 23.08 13.78 15.35 13.52 13.41"/>
      <polygon class="cls-3" points="12.36 6.84 16.92 6.84 10.68 .08 2.45 6.84 6.89 6.84 .1 17.4 4.74 17.4 1.17 26.92 13.51 13.41 8.55 13.41 12.36 6.84"/>
      <rect class="cls-1" x="6.83" y="16.78" width=".32" height="5.88" rx=".16" ry=".16" transform="translate(15.24 .49) rotate(42.74)"/>
      <rect class="cls-1" x="4.28" y="7.04" width=".37" height="9.11" rx=".18" ry=".18" transform="translate(7.03 -.56) rotate(32.98)"/>
      <rect class="cls-1" x="3.32" y="13.48" width=".3" height="1.75" rx=".14" ry=".14" transform="translate(8.37 .42) rotate(32.98)"/>
      <g>
        <rect class="cls-1" x="6.98" y="2.19" width=".28" height="3.87" rx=".12" ry=".12" transform="translate(5.7 -3.98) rotate(50.02)"/>
        <rect class="cls-1" x="9.08" y="1.93" width=".28" height=".85" rx=".12" ry=".12" transform="translate(5.1 -6.22) rotate(50.02)"/>
      </g>
    </g>
  </g>
</svg>