<?xml version="1.0" encoding="UTF-8"?>
<svg id="Layer_2" data-name="Layer 2" xmlns="http://www.w3.org/2000/svg" viewBox="0 0 13.61 11.43">
  <defs>
    <style>
      .cls-1 {
        fill: #828282;
        fill-rule: evenodd;
      }
    </style>
  </defs>
  <g id="Layer_1-2" data-name="Layer 1">
    <path class="cls-1" d="m4.54,10.62c0-.45.25-.82.57-.82h3.4c.31,0,.57.37.57.82s-.25.82-.57.82h-3.4c-.31,0-.57-.37-.57-.82m-2.27-4.9c0-.45.25-.82.57-.82h7.94c.31,0,.57.37.57.82s-.25.82-.57.82H2.84c-.31,0-.57-.37-.57-.82M0,.82c0-.45.25-.82.57-.82h12.48c.31,0,.57.37.57.82s-.25.82-.57.82H.57c-.31,0-.57-.37-.57-.82"/>
  </g>
</svg>