<?xml version="1.0" encoding="UTF-8"?>
<svg id="Layer_2" data-name="Layer 2" xmlns="http://www.w3.org/2000/svg" xmlns:xlink="http://www.w3.org/1999/xlink" viewBox="0 0 226.06 64.58">
  <defs>
    <style>
      .cls-1 {
        fill: none;
      }

      .cls-1, .cls-2, .cls-3, .cls-4, .cls-5, .cls-6, .cls-7 {
        stroke-width: 0px;
      }

      .cls-2 {
        fill: url(#linear-gradient);
      }

      .cls-3 {
        fill: #f37a20;
      }

      .cls-4 {
        fill: #f89e1b;
      }

      .cls-5 {
        fill: url(#linear-gradient-2);
      }

      .cls-6 {
        fill: url(#linear-gradient-3);
      }

      .cls-7 {
        fill: #555;
        fill-rule: evenodd;
      }
    </style>
    <linearGradient id="linear-gradient" x1="55.59" y1="32.88" x2="47.06" y2="32.88" gradientUnits="userSpaceOnUse">
      <stop offset="0" stop-color="#f37a20"/>
      <stop offset=".69" stop-color="#f6911c"/>
      <stop offset="1" stop-color="#f89e1b"/>
    </linearGradient>
    <linearGradient id="linear-gradient-2" x1="71.04" y1="32.88" x2="37.1" y2="32.88" xlink:href="#linear-gradient"/>
    <linearGradient id="linear-gradient-3" x1="71.04" y1="32.88" x2="37.1" y2="32.88" xlink:href="#linear-gradient"/>
  </defs>
  <g id="Layer_2-2" data-name="Layer 2">
    <g>
      <path class="cls-3" d="M88.39,15.32c-9.66,0-17.49,7.8-17.56,17.44h0v31.82h6.45v-18.1c3.03,2.48,6.9,3.97,11.11,3.97,9.7,0,17.57-7.86,17.57-17.57s-7.86-17.57-17.57-17.57ZM88.39,43.9c-6.07,0-11.01-4.94-11.01-11.02s4.94-11.02,11.01-11.02,11.02,4.94,11.02,11.02-4.94,11.02-11.02,11.02Z"/>
      <path class="cls-7" d="M130.55,15.12h0c-2.48,0-4.74.93-6.45,2.47-1.71-1.53-3.97-2.47-6.45-2.47h0c-5.35,0-9.68,4.33-9.68,9.68v25.65h6.45v-25.81c0-1.78,1.44-3.23,3.23-3.23h0c1.78,0,3.23,1.44,3.23,3.23v.16s0,0,0,0v25.65h6.45v-25.65s0,0,0,0v-.16c0-1.78,1.44-3.23,3.23-3.23h0c1.78,0,3.23,1.44,3.23,3.23v25.81h6.45v-25.65c0-5.35-4.33-9.68-9.68-9.68Z"/>
      <path class="cls-7" d="M198.24,25.53v-4.1c0-3.5-2.84-6.34-6.34-6.34h-13.12c-3.5,0-6.34,2.84-6.34,6.34v8.21c0,3.5,2.84,6.34,6.34,6.34h10.82c1.21,0,2.2.98,2.2,2.2v3.59c0,1.21-.98,2.2-2.2,2.2h-8.51c-1.21,0-2.2-.98-2.2-2.2v-1.8h-6.45v4.2c0,3.45,2.8,6.24,6.24,6.24h13.32c3.45,0,6.24-2.8,6.24-6.24v-8.4c0-3.45-2.8-6.24-6.24-6.24h-10.92c-1.21,0-2.2-.98-2.2-2.2v-3.59c0-1.21.98-2.2,2.2-2.2h8.51c1.21,0,2.2.98,2.2,2.2v1.8h6.45Z"/>
      <path class="cls-7" d="M226.06,25.56v-4.1c0-3.5-2.84-6.34-6.34-6.34h-13.12c-3.5,0-6.34,2.84-6.34,6.34v8.21c0,3.5,2.84,6.34,6.34,6.34h10.82c1.21,0,2.2.98,2.2,2.2v3.59c0,1.21-.98,2.2-2.2,2.2h-8.51c-1.21,0-2.2-.98-2.2-2.2v-1.8h-6.45v4.2c0,3.45,2.8,6.24,6.24,6.24h13.32c3.45,0,6.24-2.8,6.24-6.24v-8.4c0-3.45-2.8-6.24-6.24-6.24h-10.92c-1.21,0-2.2-.98-2.2-2.2v-3.59c0-1.21.98-2.2,2.2-2.2h8.51c1.21,0,2.2.98,2.2,2.2v1.8h6.45Z"/>
      <path class="cls-7" d="M169.96,43.99c-1.05,0-1.9-.85-1.9-1.9V15.74c0-.34-.28-.62-.62-.62h-5.22c-.34,0-.62.28-.62.62v1.11c-1.9-1.1-4.1-1.73-6.45-1.73h0c-7.13,0-12.9,5.78-12.9,12.9v9.52c0,7.13,5.78,12.9,12.9,12.9h0c3.11,0,5.96-1.1,8.18-2.93,1.13,1.4,2.72,2.41,4.55,2.78.04,0,.07.01.11.02.88.08,1.68.1,2.41.06v-6.43c-.15.03-.3.05-.45.05ZM155.16,43.99h0c-3.56,0-6.45-2.89-6.45-6.45v-9.52c0-3.56,2.89-6.45,6.45-6.45h0c3.56,0,6.45,2.89,6.45,6.45v9.52c0,3.56-2.89,6.45-6.45,6.45Z"/>
      <polygon class="cls-3" points="19.25 5.06 16.57 8.71 20.34 13.81 26.04 13.81 29.81 8.71 27.88 6.07 27.13 5.06 19.25 5.06"/>
      <polygon class="cls-1" points="28.12 3.87 28.12 3.87 31.52 8.46 28.12 3.87"/>
      <polygon class="cls-3" points="31.52 8.46 46.41 6.14 41.7 1.43 28.08 3.81 28.12 3.87 28.12 3.87 31.52 8.46"/>
      <polygon class="cls-3" points="14.89 8.46 0 6.14 4.71 1.43 18.32 3.81 18.28 3.87 18.28 3.87 14.89 8.46"/>
      <path class="cls-7" d="M4.71,1.43c5.27-.82,11.5-1.43,18.49-1.43s13.22.61,18.49,1.43c-4.52.81-9.05,1.62-13.57,2.43l-9.8-.06L4.71,1.43Z"/>
      <polygon class="cls-4" points="29.97 52.95 26.19 15.32 26.04 15.32 23.38 15.32 23.19 15.32 23.19 59.68 23.19 59.68 29.97 52.95"/>
      <polygon class="cls-3" points="23.01 15.32 20.53 15.32 20.19 15.32 16.41 52.95 23.19 59.68 23.19 15.32 23.01 15.32"/>
      <circle class="cls-2" cx="50.4" cy="32.88" r="4.64"/>
      <path class="cls-5" d="M50.4,24.99c4.36,0,7.89,3.53,7.89,7.89s-3.53,7.89-7.89,7.89-7.89-3.53-7.89-7.89,3.53-7.89,7.89-7.89M50.4,20.79c-6.67,0-12.09,5.42-12.09,12.09s5.42,12.09,12.09,12.09,12.09-5.42,12.09-12.09-5.42-12.09-12.09-12.09h0Z"/>
      <path class="cls-6" d="M50.4,17.53c8.48,0,15.35,6.87,15.35,15.35s-6.87,15.35-15.35,15.35-15.35-6.87-15.35-15.35,6.87-15.35,15.35-15.35M50.4,14.44c-10.17,0-18.44,8.27-18.44,18.44s8.27,18.44,18.44,18.44,18.44-8.27,18.44-18.44-8.27-18.44-18.44-18.44h0Z"/>
    </g>
  </g>
</svg>