<?xml version="1.0" encoding="UTF-8"?>
<svg id="Layer_2" data-name="Layer 2" xmlns="http://www.w3.org/2000/svg" xmlns:xlink="http://www.w3.org/1999/xlink" viewBox="0 0 117.69 34.66">
  <defs>
    <style>
      .cls-1 {
        fill: none;
      }

      .cls-2 {
        fill: url(#linear-gradient);
      }

      .cls-3 {
        fill: #f89e1b;
      }

      .cls-4 {
        fill: #f37a20;
      }

      .cls-5, .cls-6 {
        fill: #555;
      }

      .cls-7 {
        fill: url(#linear-gradient-3);
      }

      .cls-8 {
        fill: url(#linear-gradient-2);
      }

      .cls-6 {
        fill-rule: evenodd;
      }
    </style>
    <linearGradient id="linear-gradient" x1="28.94" y1="17.12" x2="24.5" y2="17.12" gradientUnits="userSpaceOnUse">
      <stop offset="0" stop-color="#f37a20"/>
      <stop offset=".69" stop-color="#f6911c"/>
      <stop offset="1" stop-color="#f89e1b"/>
    </linearGradient>
    <linearGradient id="linear-gradient-2" x1="36.99" y1="17.12" x2="19.31" y2="17.12" xlink:href="#linear-gradient"/>
    <linearGradient id="linear-gradient-3" x1="36.99" y1="17.12" x2="19.31" y2="17.12" xlink:href="#linear-gradient"/>
  </defs>
  <g id="Layer_2-2" data-name="Layer 2">
    <g>
      <path class="cls-4" d="m46.02,7.97c-5.03,0-9.11,4.06-9.14,9.08h0v16.57h3.36v-9.42c1.58,1.29,3.59,2.06,5.79,2.06,5.05,0,9.14-4.09,9.14-9.14s-4.09-9.14-9.14-9.14Zm0,14.88c-3.16,0-5.73-2.57-5.73-5.73s2.57-5.73,5.73-5.73,5.73,2.57,5.73,5.73-2.57,5.73-5.73,5.73Z"/>
      <path class="cls-6" d="m67.97,7.87h0c-1.29,0-2.47.49-3.36,1.28-.89-.8-2.07-1.28-3.36-1.28h0c-2.78,0-5.04,2.26-5.04,5.04v13.35h3.36v-13.44c0-.93.75-1.68,1.68-1.68h0c.93,0,1.68.75,1.68,1.68v.09s0,0,0,0v13.35h3.36v-13.35s0,0,0,0v-.09c0-.93.75-1.68,1.68-1.68h0c.93,0,1.68.75,1.68,1.68v13.44h3.36v-13.35c0-2.78-2.26-5.04-5.04-5.04Z"/>
      <path class="cls-6" d="m103.21,13.29v-2.14c0-1.82-1.48-3.3-3.3-3.3h-6.83c-1.82,0-3.3,1.48-3.3,3.3v4.27c0,1.82,1.48,3.3,3.3,3.3h5.63c.63,0,1.14.51,1.14,1.14v1.87c0,.63-.51,1.14-1.14,1.14h-4.43c-.63,0-1.14-.51-1.14-1.14v-.94h-3.36v2.19c0,1.8,1.46,3.25,3.25,3.25h6.94c1.8,0,3.25-1.46,3.25-3.25v-4.37c0-1.8-1.46-3.25-3.25-3.25h-5.68c-.63,0-1.14-.51-1.14-1.14v-1.87c0-.63.51-1.14,1.14-1.14h4.43c.63,0,1.14.51,1.14,1.14v.94h3.36Z"/>
      <path class="cls-6" d="m117.69,13.31v-2.14c0-1.82-1.48-3.3-3.3-3.3h-6.83c-1.82,0-3.3,1.48-3.3,3.3v4.27c0,1.82,1.48,3.3,3.3,3.3h5.63c.63,0,1.14.51,1.14,1.14v1.87c0,.63-.51,1.14-1.14,1.14h-4.43c-.63,0-1.14-.51-1.14-1.14v-.94h-3.36v2.19c0,1.8,1.46,3.25,3.25,3.25h6.94c1.8,0,3.25-1.46,3.25-3.25v-4.37c0-1.8-1.46-3.25-3.25-3.25h-5.68c-.63,0-1.14-.51-1.14-1.14v-1.87c0-.63.51-1.14,1.14-1.14h4.43c.63,0,1.14.51,1.14,1.14v.94h3.36Z"/>
      <path class="cls-6" d="m88.49,22.9c-.55,0-.99-.44-.99-.99v-13.72c0-.18-.14-.32-.32-.32h-2.72c-.18,0-.32.14-.32.32v.58c-.99-.57-2.13-.9-3.36-.9h0c-3.71,0-6.72,3.01-6.72,6.72v4.96c0,3.71,3.01,6.72,6.72,6.72h0c1.62,0,3.1-.57,4.26-1.53.59.73,1.42,1.25,2.37,1.45.02,0,.04,0,.06,0,.46.04.87.05,1.26.03v-3.35c-.08.02-.15.03-.24.03Zm-7.71,0h0c-1.86,0-3.36-1.5-3.36-3.36v-4.96c0-1.86,1.5-3.36,3.36-3.36h0c1.86,0,3.36,1.5,3.36,3.36v4.96c0,1.86-1.5,3.36-3.36,3.36Z"/>
      <polygon class="cls-4" points="10.02 2.63 8.63 4.53 10.59 7.19 13.56 7.19 15.52 4.53 14.51 3.16 14.12 2.63 10.02 2.63"/>
      <polygon class="cls-1" points="14.64 2.01 14.64 2.01 16.41 4.41 14.64 2.01"/>
      <polygon class="cls-4" points="16.41 4.41 24.16 3.2 21.71 .75 14.62 1.98 14.64 2.01 14.64 2.01 16.41 4.41"/>
      <polygon class="cls-4" points="7.75 4.41 0 3.2 2.45 .75 9.54 1.98 9.52 2.01 9.52 2.01 7.75 4.41"/>
      <path class="cls-6" d="m2.45.75c2.75-.43,5.99-.75,9.63-.75s6.88.32,9.63.75c-2.36.42-4.71.84-7.07,1.27l-5.1-.03L2.45.75Z"/>
      <polygon class="cls-3" points="15.6 27.57 13.64 7.97 13.56 7.97 12.17 7.97 12.07 7.97 12.07 31.07 12.07 31.07 15.6 27.57"/>
      <polygon class="cls-4" points="11.98 7.97 10.69 7.97 10.51 7.97 8.54 27.57 12.07 31.07 12.07 7.97 11.98 7.97"/>
      <circle class="cls-2" cx="26.24" cy="17.12" r="2.41"/>
      <path class="cls-8" d="m26.24,13.01c2.27,0,4.11,1.84,4.11,4.11s-1.84,4.11-4.11,4.11-4.11-1.84-4.11-4.11,1.84-4.11,4.11-4.11m0-2.19c-3.47,0-6.29,2.82-6.29,6.29s2.82,6.29,6.29,6.29,6.29-2.82,6.29-6.29-2.82-6.29-6.29-6.29h0Z"/>
      <path class="cls-7" d="m26.24,9.13c4.41,0,7.99,3.58,7.99,7.99s-3.58,7.99-7.99,7.99-7.99-3.58-7.99-7.99,3.58-7.99,7.99-7.99m0-1.61c-5.29,0-9.6,4.31-9.6,9.6s4.31,9.6,9.6,9.6,9.6-4.31,9.6-9.6-4.31-9.6-9.6-9.6h0Z"/>
      <g>
        <path class="cls-5" d="m42.09,33.62v-3.57h1.22c.19,0,.37.02.52.06.15.04.28.1.39.18.11.08.19.18.24.3.06.12.08.27.08.43s-.04.31-.13.44c-.09.13-.22.23-.39.3.1.03.19.07.27.12.08.05.14.12.19.19s.09.15.11.24c.02.09.04.18.04.27,0,.17-.03.32-.08.45-.06.13-.14.24-.25.33-.11.09-.24.15-.39.2-.15.04-.33.07-.52.07h-1.31Zm.62-2.07h.61c.19,0,.34-.04.45-.13.11-.09.16-.21.16-.37,0-.18-.05-.3-.15-.38-.1-.08-.26-.12-.47-.12h-.6v1Zm0,.46v1.12h.69c.1,0,.19-.01.27-.04s.14-.06.19-.11c.05-.05.09-.11.12-.17.03-.07.04-.14.04-.22,0-.18-.05-.32-.14-.42-.09-.1-.24-.15-.45-.15h-.72Z"/>
        <path class="cls-5" d="m46.37,33.67c-.2,0-.37-.03-.53-.1-.16-.07-.29-.16-.4-.27-.11-.11-.19-.25-.25-.41s-.09-.33-.09-.51v-.1c0-.21.03-.4.09-.57s.15-.31.26-.43c.11-.12.24-.21.38-.27.15-.06.3-.1.47-.1.19,0,.36.03.5.1.14.06.26.15.35.27s.16.25.21.41.07.34.07.53v.26h-1.73c0,.1.03.2.06.28.04.09.08.16.14.22.06.06.13.11.21.15.08.04.18.05.28.05.15,0,.27-.03.38-.09.11-.06.2-.14.28-.24l.32.31c-.04.06-.1.13-.16.19s-.14.11-.22.16c-.08.05-.18.08-.29.11-.11.03-.23.04-.36.04Zm-.07-2.27c-.16,0-.3.06-.4.17-.1.11-.16.27-.19.48h1.14v-.04c0-.08-.02-.15-.04-.23-.02-.07-.05-.14-.09-.19-.04-.06-.1-.1-.17-.13-.07-.03-.15-.05-.25-.05Z"/>
        <path class="cls-5" d="m47.79,32.27c0-.2.02-.38.07-.55.05-.17.12-.31.21-.43s.2-.21.33-.28c.13-.07.28-.1.44-.1s.3.03.41.08c.12.05.22.13.3.23l.03-.27h.54v2.58c0,.18-.03.34-.09.48s-.14.26-.25.35c-.11.09-.23.17-.38.22s-.31.07-.49.07c-.07,0-.16,0-.25-.02s-.18-.04-.27-.08c-.09-.04-.18-.08-.26-.14-.08-.06-.15-.12-.21-.2l.28-.36c.1.12.2.2.32.25.12.05.23.08.36.08.2,0,.35-.05.47-.16.11-.11.17-.26.17-.47v-.18c-.08.09-.18.16-.29.21-.11.05-.24.07-.39.07-.16,0-.31-.03-.44-.1s-.24-.16-.33-.28-.16-.26-.21-.43c-.05-.16-.07-.34-.07-.54v-.05Zm.59.05c0,.12.01.23.04.33.02.1.06.19.11.27.05.08.11.14.19.19.08.04.17.07.28.07.13,0,.24-.03.33-.08s.15-.13.21-.22v-1.17c-.05-.09-.12-.17-.21-.22-.09-.05-.19-.08-.32-.08-.11,0-.2.02-.28.07-.08.05-.14.11-.19.19s-.09.17-.11.28c-.02.11-.04.22-.04.34v.05Z"/>
        <path class="cls-5" d="m50.75,30.28c0-.09.03-.17.09-.23.06-.06.14-.09.25-.09s.19.03.25.09.09.14.09.23-.03.16-.09.22c-.06.06-.14.09-.25.09s-.19-.03-.25-.09c-.06-.06-.09-.13-.09-.22Zm.63,3.34h-.6v-2.65h.6v2.65Z"/>
        <path class="cls-5" d="m52.58,30.97l.02.31c.09-.11.21-.2.34-.26.13-.06.28-.09.44-.09.13,0,.24.02.35.05.1.04.19.09.27.17s.13.18.17.31c.04.13.06.28.06.46v1.71h-.6v-1.72c0-.09-.01-.17-.03-.23-.02-.06-.05-.11-.09-.15s-.09-.07-.15-.08c-.06-.02-.12-.03-.2-.03-.12,0-.23.03-.32.09s-.16.14-.22.24v1.89h-.6v-2.65h.56Z"/>
        <path class="cls-5" d="m55.37,30.97l.02.31c.09-.11.21-.2.34-.26.13-.06.28-.09.44-.09.13,0,.24.02.35.05.1.04.19.09.27.17s.13.18.17.31c.04.13.06.28.06.46v1.71h-.6v-1.72c0-.09-.01-.17-.03-.23-.02-.06-.05-.11-.09-.15s-.09-.07-.15-.08c-.06-.02-.12-.03-.2-.03-.12,0-.23.03-.32.09s-.16.14-.22.24v1.89h-.6v-2.65h.56Z"/>
        <path class="cls-5" d="m57.61,30.28c0-.09.03-.17.09-.23.06-.06.14-.09.25-.09s.19.03.25.09.09.14.09.23-.03.16-.09.22c-.06.06-.14.09-.25.09s-.19-.03-.25-.09c-.06-.06-.09-.13-.09-.22Zm.63,3.34h-.6v-2.65h.6v2.65Z"/>
        <path class="cls-5" d="m59.45,30.97l.02.31c.09-.11.21-.2.34-.26.13-.06.28-.09.44-.09.13,0,.24.02.35.05.1.04.19.09.27.17s.13.18.17.31c.04.13.06.28.06.46v1.71h-.6v-1.72c0-.09-.01-.17-.03-.23-.02-.06-.05-.11-.09-.15s-.09-.07-.15-.08c-.06-.02-.12-.03-.2-.03-.12,0-.23.03-.32.09s-.16.14-.22.24v1.89h-.6v-2.65h.56Z"/>
        <path class="cls-5" d="m61.58,32.27c0-.2.02-.38.07-.55.05-.17.12-.31.21-.43s.2-.21.33-.28c.13-.07.28-.1.44-.1s.3.03.41.08c.12.05.22.13.3.23l.03-.27h.54v2.58c0,.18-.03.34-.09.48s-.14.26-.25.35c-.11.09-.23.17-.38.22s-.31.07-.49.07c-.07,0-.16,0-.25-.02s-.18-.04-.27-.08c-.09-.04-.18-.08-.26-.14-.08-.06-.15-.12-.21-.2l.28-.36c.1.12.2.2.32.25.12.05.23.08.36.08.2,0,.35-.05.47-.16.11-.11.17-.26.17-.47v-.18c-.08.09-.18.16-.29.21-.11.05-.24.07-.39.07-.16,0-.31-.03-.44-.1s-.24-.16-.33-.28-.16-.26-.21-.43c-.05-.16-.07-.34-.07-.54v-.05Zm.59.05c0,.12.01.23.04.33.02.1.06.19.11.27.05.08.11.14.19.19.08.04.17.07.28.07.13,0,.24-.03.33-.08s.15-.13.21-.22v-1.17c-.05-.09-.12-.17-.21-.22-.09-.05-.19-.08-.32-.08-.11,0-.2.02-.28.07-.08.05-.14.11-.19.19s-.09.17-.11.28c-.02.11-.04.22-.04.34v.05Z"/>
        <path class="cls-5" d="m66.53,30.32v.64h.47v.44h-.47v1.48c0,.06,0,.11.02.15.01.04.03.07.06.09.02.02.05.03.09.04.03,0,.07.01.11.01s.08,0,.12,0c.04,0,.07-.01.09-.02v.46s-.1.03-.17.04c-.06.01-.14.02-.23.02-.1,0-.19-.01-.27-.04-.08-.03-.16-.07-.22-.13-.06-.06-.11-.14-.14-.23-.03-.09-.05-.21-.05-.35v-1.52h-.44v-.44h.44v-.64h.6Z"/>
        <path class="cls-5" d="m68.04,31.26c.09-.11.2-.19.32-.25s.26-.09.41-.09c.13,0,.25.02.35.05.11.04.2.09.27.17.08.08.13.18.17.31.04.13.06.28.06.46v1.71h-.6v-1.71c0-.18-.04-.31-.12-.39-.08-.08-.2-.11-.35-.11-.12,0-.23.03-.32.09s-.16.13-.21.23v1.9h-.6v-3.77h.6v1.4Z"/>
        <path class="cls-5" d="m71.41,33.67c-.2,0-.37-.03-.53-.1-.16-.07-.29-.16-.4-.27-.11-.11-.19-.25-.25-.41s-.09-.33-.09-.51v-.1c0-.21.03-.4.09-.57s.15-.31.26-.43c.11-.12.24-.21.38-.27.15-.06.3-.1.47-.1.19,0,.36.03.5.1.14.06.26.15.35.27s.16.25.21.41.07.34.07.53v.26h-1.73c0,.1.03.2.06.28.04.09.08.16.14.22.06.06.13.11.21.15.08.04.18.05.28.05.15,0,.27-.03.38-.09.11-.06.2-.14.28-.24l.32.31c-.04.06-.1.13-.16.19s-.14.11-.22.16c-.08.05-.18.08-.29.11-.11.03-.23.04-.36.04Zm-.07-2.27c-.16,0-.3.06-.4.17-.1.11-.16.27-.19.48h1.14v-.04c0-.08-.02-.15-.04-.23-.02-.07-.05-.14-.09-.19-.04-.06-.1-.1-.17-.13-.07-.03-.15-.05-.25-.05Z"/>
        <path class="cls-5" d="m75.36,33.67c-.2,0-.37-.03-.53-.1-.16-.07-.29-.16-.4-.27-.11-.11-.19-.25-.25-.41s-.09-.33-.09-.51v-.1c0-.21.03-.4.09-.57s.15-.31.26-.43c.11-.12.24-.21.38-.27.15-.06.3-.1.47-.1.19,0,.36.03.5.1.14.06.26.15.35.27s.16.25.21.41.07.34.07.53v.26h-1.73c0,.1.03.2.06.28.04.09.08.16.14.22.06.06.13.11.21.15.08.04.18.05.28.05.15,0,.27-.03.38-.09.11-.06.2-.14.28-.24l.32.31c-.04.06-.1.13-.16.19s-.14.11-.22.16c-.08.05-.18.08-.29.11-.11.03-.23.04-.36.04Zm-.07-2.27c-.16,0-.3.06-.4.17-.1.11-.16.27-.19.48h1.14v-.04c0-.08-.02-.15-.04-.23-.02-.07-.05-.14-.09-.19-.04-.06-.1-.1-.17-.13-.07-.03-.15-.05-.25-.05Z"/>
        <path class="cls-5" d="m77.44,30.97l.02.31c.09-.11.21-.2.34-.26.13-.06.28-.09.44-.09.13,0,.24.02.35.05.1.04.19.09.27.17s.13.18.17.31c.04.13.06.28.06.46v1.71h-.6v-1.72c0-.09-.01-.17-.03-.23-.02-.06-.05-.11-.09-.15s-.09-.07-.15-.08c-.06-.02-.12-.03-.2-.03-.12,0-.23.03-.32.09s-.16.14-.22.24v1.89h-.6v-2.65h.56Z"/>
        <path class="cls-5" d="m80.42,30.32v.64h.47v.44h-.47v1.48c0,.06,0,.11.02.15.01.04.03.07.06.09.02.02.05.03.09.04.03,0,.07.01.11.01s.08,0,.12,0c.04,0,.07-.01.09-.02v.46s-.1.03-.17.04c-.06.01-.14.02-.23.02-.1,0-.19-.01-.27-.04-.08-.03-.16-.07-.22-.13-.06-.06-.11-.14-.14-.23-.03-.09-.05-.21-.05-.35v-1.52h-.44v-.44h.44v-.64h.6Z"/>
        <path class="cls-5" d="m81.35,30.28c0-.09.03-.17.09-.23.06-.06.14-.09.25-.09s.19.03.25.09.09.14.09.23-.03.16-.09.22c-.06.06-.14.09-.25.09s-.19-.03-.25-.09c-.06-.06-.09-.13-.09-.22Zm.63,3.34h-.6v-2.65h.6v2.65Z"/>
        <path class="cls-5" d="m84.02,31.51s-.08-.01-.12-.01-.08,0-.12,0c-.14,0-.26.03-.35.08-.09.06-.16.13-.2.23v1.81h-.6v-2.65h.57v.3c.08-.11.16-.19.26-.25.1-.06.22-.09.35-.09.03,0,.07,0,.12.01s.07.02.09.02v.56Z"/>
        <path class="cls-5" d="m85.52,33.67c-.2,0-.37-.03-.53-.1-.16-.07-.29-.16-.4-.27-.11-.11-.19-.25-.25-.41s-.09-.33-.09-.51v-.1c0-.21.03-.4.09-.57s.15-.31.26-.43c.11-.12.24-.21.38-.27.15-.06.3-.1.47-.1.19,0,.36.03.5.1.14.06.26.15.35.27s.16.25.21.41.07.34.07.53v.26h-1.73c0,.1.03.2.06.28.04.09.08.16.14.22.06.06.13.11.21.15.08.04.18.05.28.05.15,0,.27-.03.38-.09.11-.06.2-.14.28-.24l.32.31c-.04.06-.1.13-.16.19s-.14.11-.22.16c-.08.05-.18.08-.29.11-.11.03-.23.04-.36.04Zm-.07-2.27c-.16,0-.3.06-.4.17-.1.11-.16.27-.19.48h1.14v-.04c0-.08-.02-.15-.04-.23-.02-.07-.05-.14-.09-.19-.04-.06-.1-.1-.17-.13-.07-.03-.15-.05-.25-.05Z"/>
        <path class="cls-5" d="m90.62,32.32c0,.2-.02.38-.07.54-.04.17-.11.31-.2.43-.09.12-.19.21-.32.28s-.28.1-.45.1-.3-.03-.42-.09-.22-.14-.3-.25l-.03.29h-.54v-3.77h.6v1.37c.08-.1.18-.17.3-.23.11-.05.25-.08.4-.08.17,0,.32.03.45.1s.24.16.32.28.15.26.2.43.07.35.07.55v.05Zm-.6-.05c0-.12,0-.23-.03-.33-.02-.1-.05-.2-.1-.27-.05-.08-.11-.14-.18-.19-.08-.05-.17-.07-.29-.07-.14,0-.25.03-.34.09-.09.06-.16.14-.2.25v1.09c.05.1.12.19.2.25.09.06.2.1.34.1.11,0,.2-.02.28-.07.08-.04.14-.11.18-.18.05-.08.08-.17.1-.27.02-.1.03-.22.03-.34v-.05Z"/>
        <path class="cls-5" d="m92.51,31.51s-.08-.01-.12-.01-.08,0-.12,0c-.14,0-.26.03-.35.08-.09.06-.16.13-.2.23v1.81h-.6v-2.65h.57v.3c.08-.11.16-.19.26-.25.1-.06.22-.09.35-.09.03,0,.07,0,.12.01s.07.02.09.02v.56Z"/>
        <path class="cls-5" d="m94.01,33.67c-.2,0-.37-.03-.53-.1-.16-.07-.29-.16-.4-.27-.11-.11-.19-.25-.25-.41s-.09-.33-.09-.51v-.1c0-.21.03-.4.09-.57s.15-.31.26-.43c.11-.12.24-.21.38-.27.15-.06.3-.1.47-.1.19,0,.36.03.5.1.14.06.26.15.35.27s.16.25.21.41.07.34.07.53v.26h-1.73c0,.1.03.2.06.28.04.09.08.16.14.22.06.06.13.11.21.15.08.04.18.05.28.05.15,0,.27-.03.38-.09.11-.06.2-.14.28-.24l.32.31c-.04.06-.1.13-.16.19s-.14.11-.22.16c-.08.05-.18.08-.29.11-.11.03-.23.04-.36.04Zm-.07-2.27c-.16,0-.3.06-.4.17-.1.11-.16.27-.19.48h1.14v-.04c0-.08-.02-.15-.04-.23-.02-.07-.05-.14-.09-.19-.04-.06-.1-.1-.17-.13-.07-.03-.15-.05-.25-.05Z"/>
        <path class="cls-5" d="m97.12,33.62s-.03-.07-.04-.11-.02-.09-.03-.14c-.04.04-.08.08-.13.12-.05.04-.1.07-.16.09-.06.03-.12.05-.19.06-.07.02-.14.02-.22.02-.13,0-.25-.02-.37-.06-.11-.04-.21-.1-.29-.17s-.14-.15-.19-.25c-.04-.1-.07-.2-.07-.31,0-.14.03-.27.08-.38.05-.11.13-.2.24-.27.1-.07.23-.13.38-.17.15-.04.32-.06.51-.06h.38v-.17c0-.14-.04-.25-.12-.33-.08-.08-.19-.12-.35-.12-.07,0-.13,0-.19.03s-.11.04-.15.08c-.04.03-.07.07-.09.11-.02.04-.03.09-.03.14h-.6c0-.1.03-.21.08-.3.05-.1.12-.18.22-.26.09-.08.21-.14.34-.18.13-.05.29-.07.45-.07.15,0,.29.02.41.06.13.04.23.1.33.17.09.08.16.17.21.28.05.11.08.25.08.4v1.18c0,.24.03.43.1.57v.04h-.61Zm-.65-.43c.07,0,.13,0,.19-.03.06-.02.11-.04.16-.07.05-.03.09-.06.13-.1.04-.04.06-.08.09-.12v-.5h-.32c-.22,0-.39.04-.5.12-.11.08-.17.19-.17.33,0,.05,0,.1.03.15.02.05.04.09.08.12.04.03.08.06.13.08.05.02.11.03.18.03Z"/>
        <path class="cls-5" d="m99.11,32.48l-.26.27v.87h-.6v-3.77h.6v2.17l.19-.23.73-.83h.72l-.99,1.11,1.09,1.55h-.69l-.79-1.14Z"/>
        <path class="cls-5" d="m101.62,30.32v.64h.47v.44h-.47v1.48c0,.06,0,.11.02.15.01.04.03.07.06.09.02.02.05.03.09.04.03,0,.07.01.11.01s.08,0,.12,0c.04,0,.07-.01.09-.02v.46s-.1.03-.17.04c-.06.01-.14.02-.23.02-.1,0-.19-.01-.27-.04-.08-.03-.16-.07-.22-.13-.06-.06-.11-.14-.14-.23-.03-.09-.05-.21-.05-.35v-1.52h-.44v-.44h.44v-.64h.6Z"/>
        <path class="cls-5" d="m103.13,31.26c.09-.11.2-.19.32-.25s.26-.09.41-.09c.13,0,.25.02.35.05.11.04.2.09.27.17.08.08.13.18.17.31.04.13.06.28.06.46v1.71h-.6v-1.71c0-.18-.04-.31-.12-.39-.08-.08-.2-.11-.35-.11-.12,0-.23.03-.32.09s-.16.13-.21.23v1.9h-.6v-3.77h.6v1.4Z"/>
        <path class="cls-5" d="m106.72,31.51s-.08-.01-.12-.01-.08,0-.12,0c-.14,0-.26.03-.35.08-.09.06-.16.13-.2.23v1.81h-.6v-2.65h.57v.3c.08-.11.16-.19.26-.25.1-.06.22-.09.35-.09.03,0,.07,0,.12.01s.07.02.09.02v.56Z"/>
        <path class="cls-5" d="m106.9,32.27c0-.19.03-.37.08-.54.06-.16.14-.31.24-.43.11-.12.23-.22.39-.28.15-.07.32-.1.52-.1s.37.03.52.1c.15.07.28.16.39.28.11.12.19.26.24.43.06.16.08.34.08.54v.05c0,.19-.03.37-.08.54-.06.17-.14.31-.24.43-.11.12-.23.21-.39.28s-.33.1-.52.1-.37-.03-.52-.1c-.15-.07-.28-.16-.39-.28-.11-.12-.19-.26-.24-.43-.06-.17-.08-.34-.08-.54v-.05Zm.6.05c0,.12.01.23.04.34.02.11.06.2.12.28.05.08.12.14.2.19.08.05.18.07.29.07s.2-.02.29-.07c.08-.05.15-.11.2-.19s.09-.17.12-.28c.03-.11.04-.22.04-.34v-.05c0-.12-.01-.23-.04-.33-.03-.11-.06-.2-.12-.28-.05-.08-.12-.14-.2-.19-.08-.05-.18-.07-.29-.07s-.21.02-.29.07c-.08.05-.15.11-.2.19-.05.08-.09.17-.12.28-.02.11-.04.22-.04.33v.05Z"/>
        <path class="cls-5" d="m111.48,33.36c-.08.1-.19.17-.31.23s-.27.08-.44.08c-.13,0-.25-.02-.36-.06-.11-.04-.2-.09-.28-.17-.08-.08-.14-.18-.18-.31-.04-.13-.06-.28-.06-.45v-1.72h.6v1.72c0,.1.01.18.03.24.02.06.05.11.09.15s.08.07.13.08c.05.02.1.02.16.02.15,0,.28-.03.37-.08s.17-.13.21-.23v-1.91h.6v2.65h-.56v-.26Z"/>
        <path class="cls-5" d="m112.55,32.27c0-.2.02-.38.07-.55.05-.17.12-.31.21-.43s.2-.21.33-.28c.13-.07.28-.1.44-.1s.3.03.41.08c.12.05.22.13.3.23l.03-.27h.54v2.58c0,.18-.03.34-.09.48s-.14.26-.25.35c-.11.09-.23.17-.38.22s-.31.07-.49.07c-.07,0-.16,0-.25-.02s-.18-.04-.27-.08c-.09-.04-.18-.08-.26-.14-.08-.06-.15-.12-.21-.2l.28-.36c.1.12.2.2.32.25.12.05.23.08.36.08.2,0,.35-.05.47-.16.11-.11.17-.26.17-.47v-.18c-.08.09-.18.16-.29.21-.11.05-.24.07-.39.07-.16,0-.31-.03-.44-.1s-.24-.16-.33-.28-.16-.26-.21-.43c-.05-.16-.07-.34-.07-.54v-.05Zm.59.05c0,.12.01.23.04.33.02.1.06.19.11.27.05.08.11.14.19.19.08.04.17.07.28.07.13,0,.24-.03.33-.08s.15-.13.21-.22v-1.17c-.05-.09-.12-.17-.21-.22-.09-.05-.19-.08-.32-.08-.11,0-.2.02-.28.07-.08.05-.14.11-.19.19s-.09.17-.11.28c-.02.11-.04.22-.04.34v.05Z"/>
        <path class="cls-5" d="m116.09,31.26c.09-.11.2-.19.32-.25s.26-.09.41-.09c.13,0,.25.02.35.05.11.04.2.09.27.17.08.08.13.18.17.31.04.13.06.28.06.46v1.71h-.6v-1.71c0-.18-.04-.31-.12-.39-.08-.08-.2-.11-.35-.11-.12,0-.23.03-.32.09s-.16.13-.21.23v1.9h-.6v-3.77h.6v1.4Z"/>
      </g>
    </g>
  </g>
</svg>